<svg width="72" height="72" viewBox="0 0 72 72" fill="none" xmlns="http://www.w3.org/2000/svg">
<rect x="2" y="9.99982" width="60" height="60" rx="10" stroke="#111111" stroke-width="4"/>
<path fill-rule="evenodd" clip-rule="evenodd" d="M23.2993 27.7296C20.9226 30.1489 18.9609 34.4406 17.9077 37.7859C17.5759 38.8395 16.4529 39.4247 15.3994 39.093C14.3458 38.7613 13.7606 37.6383 14.0923 36.5847C15.2094 33.0365 17.4049 28.0219 20.4459 24.9264C21.9782 23.3666 23.9531 22.0646 26.3101 22.0021C28.7322 21.9379 30.9944 23.191 33.0343 25.5306C34.2742 26.9528 35.1157 28.3603 35.4057 29.7905C35.7155 31.3181 35.3562 32.6762 34.5743 33.8022C33.8461 34.8507 32.7933 35.6426 31.7636 36.2715C30.7196 36.909 29.5276 37.479 28.4004 38.0076C28.3138 38.0483 28.2276 38.0887 28.1419 38.1288C25.8575 39.1994 23.9021 40.1158 22.6542 41.2982C22.0548 41.8662 21.7255 42.405 21.5894 42.9482C21.4563 43.4797 21.4574 44.2168 21.8709 45.2802C22.6994 47.4107 24.7733 49.4485 27.6749 51.0555C30.5418 52.6432 33.9773 53.6722 37.1387 53.9339C40.3675 54.2013 42.9458 53.6448 44.423 52.5048C45.1202 51.9667 45.5993 51.2834 45.8342 50.3956C46.0759 49.4824 46.0904 48.2273 45.6258 46.5344C44.7566 43.3678 42.8358 41.8577 40.6225 41.2346C38.2817 40.5756 35.4958 40.8951 33.2 41.7569C32.0643 42.1832 31.1375 42.71 30.5036 43.2273C30.1885 43.4844 29.9762 43.7143 29.8454 43.8979C29.7905 43.975 29.7554 44.0359 29.7332 44.0806C29.7663 44.1104 29.8154 44.1502 29.8866 44.2005C30.3511 44.5283 31.3765 44.9566 33.3206 45.2428C34.4134 45.4037 35.1689 46.42 35.008 47.5128C34.8472 48.6055 33.8309 49.361 32.7381 49.2002C30.5501 48.8781 28.7973 48.3275 27.5802 47.4685C26.2584 46.5357 25.4662 45.1265 25.7577 43.4759C26.0069 42.0656 26.9836 40.9368 27.9747 40.1281C29.0166 39.278 30.3475 38.5551 31.7944 38.012C34.6638 36.9349 38.3422 36.4371 41.7065 37.3843C45.1984 38.3674 48.2236 40.8869 49.4831 45.4756C50.0828 47.6603 50.1678 49.6555 49.7011 51.4189C49.2278 53.2077 48.22 54.6271 46.8668 55.6714C44.2432 57.6962 40.4667 58.2232 36.8086 57.9203C33.0831 57.6118 29.0996 56.4169 25.737 54.5547C22.4091 52.7117 19.4431 50.0736 18.1429 46.7298C17.492 45.056 17.3366 43.4646 17.7093 41.9765C18.079 40.5002 18.9177 39.3282 19.903 38.3946C21.6422 36.7467 24.1606 35.572 26.2273 34.608C26.3884 34.5328 26.5468 34.4589 26.7019 34.3862C27.8443 33.8504 28.8475 33.3654 29.6788 32.8577C30.5244 32.3413 31.027 31.8977 31.2888 31.5206C31.4969 31.221 31.5622 30.9635 31.4855 30.5855C31.3891 30.1102 31.0333 29.3223 30.0193 28.1593C28.4529 26.3628 27.2425 25.9788 26.4162 26.0007C25.5249 26.0243 24.4759 26.5319 23.2993 27.7296ZM29.6708 44.0118C29.672 44.0119 29.6773 44.0182 29.6832 44.0303C29.6726 44.0177 29.6697 44.0117 29.6708 44.0118Z" fill="#111111"/>
<circle cx="62" cy="9.99982" r="10" fill="#39FFA0"/>
</svg>
